<svg xmlns="http://www.w3.org/2000/svg" viewBox="0 0 1000 1414" width="1000" height="1414" font-family="'Microsoft YaHei','Heiti SC','SimHei',Arial,sans-serif"><defs>
  <linearGradient id="bg" x1="0" y1="0" x2="0.34" y2="1">
    <stop offset="0%" stop-color="#05080f"/>
    <stop offset="50%" stop-color="#0d1730"/>
    <stop offset="100%" stop-color="#1b1233"/>
  </linearGradient>
  <radialGradient id="glow" cx="70%" cy="60%" r="62%">
    <stop offset="0%" stop-color="#3f66b0" stop-opacity="0.40"/>
    <stop offset="55%" stop-color="#1c2a52" stop-opacity="0.12"/>
    <stop offset="100%" stop-color="#05080f" stop-opacity="0"/>
  </radialGradient>
  <radialGradient id="glow2" cx="20%" cy="20%" r="55%">
    <stop offset="0%" stop-color="#b8862f" stop-opacity="0.16"/>
    <stop offset="100%" stop-color="#05080f" stop-opacity="0"/>
  </radialGradient>
  <linearGradient id="gold" x1="0" y1="1" x2="1" y2="0">
    <stop offset="0%" stop-color="#8a6520"/>
    <stop offset="38%" stop-color="#e8c36a"/>
    <stop offset="72%" stop-color="#c8a24a"/>
    <stop offset="100%" stop-color="#f0d894"/>
  </linearGradient>
  <linearGradient id="rule" x1="0" y1="0" x2="1" y2="0">
    <stop offset="0%" stop-color="#e8c36a"/>
    <stop offset="100%" stop-color="#e8c36a" stop-opacity="0"/>
  </linearGradient>
</defs><rect width="1000" height="1414" fill="url(#bg)"/><rect width="1000" height="1414" fill="url(#glow)"/><rect width="1000" height="1414" fill="url(#glow2)"/><g fill="#9db8e0" opacity="0.09"><circle cx="700" cy="96" r="1.3"/><circle cx="746" cy="96" r="1.3"/><circle cx="792" cy="96" r="1.3"/><circle cx="838" cy="96" r="1.3"/><circle cx="884" cy="96" r="1.3"/><circle cx="930" cy="96" r="1.3"/><circle cx="700" cy="142" r="1.3"/><circle cx="746" cy="142" r="1.3"/><circle cx="792" cy="142" r="1.3"/><circle cx="838" cy="142" r="1.3"/><circle cx="884" cy="142" r="1.3"/><circle cx="930" cy="142" r="1.3"/><circle cx="654" cy="188" r="1.3"/><circle cx="700" cy="188" r="1.3"/><circle cx="746" cy="188" r="1.3"/><circle cx="792" cy="188" r="1.3"/><circle cx="838" cy="188" r="1.3"/><circle cx="884" cy="188" r="1.3"/><circle cx="930" cy="188" r="1.3"/><circle cx="608" cy="234" r="1.3"/><circle cx="654" cy="234" r="1.3"/><circle cx="700" cy="234" r="1.3"/><circle cx="746" cy="234" r="1.3"/><circle cx="792" cy="234" r="1.3"/><circle cx="838" cy="234" r="1.3"/><circle cx="884" cy="234" r="1.3"/><circle cx="930" cy="234" r="1.3"/><circle cx="562" cy="280" r="1.3"/><circle cx="608" cy="280" r="1.3"/><circle cx="654" cy="280" r="1.3"/><circle cx="700" cy="280" r="1.3"/><circle cx="746" cy="280" r="1.3"/><circle cx="792" cy="280" r="1.3"/><circle cx="838" cy="280" r="1.3"/><circle cx="884" cy="280" r="1.3"/><circle cx="930" cy="280" r="1.3"/><circle cx="516" cy="326" r="1.3"/><circle cx="562" cy="326" r="1.3"/><circle cx="608" cy="326" r="1.3"/><circle cx="654" cy="326" r="1.3"/><circle cx="700" cy="326" r="1.3"/><circle cx="746" cy="326" r="1.3"/><circle cx="792" cy="326" r="1.3"/><circle cx="838" cy="326" r="1.3"/><circle cx="884" cy="326" r="1.3"/><circle cx="930" cy="326" r="1.3"/><circle cx="470" cy="372" r="1.3"/><circle cx="516" cy="372" r="1.3"/><circle cx="562" cy="372" r="1.3"/><circle cx="608" cy="372" r="1.3"/><circle cx="654" cy="372" r="1.3"/><circle cx="700" cy="372" r="1.3"/><circle cx="746" cy="372" r="1.3"/><circle cx="792" cy="372" r="1.3"/><circle cx="838" cy="372" r="1.3"/><circle cx="884" cy="372" r="1.3"/><circle cx="930" cy="372" r="1.3"/><circle cx="424" cy="418" r="1.3"/><circle cx="470" cy="418" r="1.3"/><circle cx="516" cy="418" r="1.3"/><circle cx="562" cy="418" r="1.3"/><circle cx="608" cy="418" r="1.3"/><circle cx="654" cy="418" r="1.3"/><circle cx="700" cy="418" r="1.3"/><circle cx="746" cy="418" r="1.3"/><circle cx="792" cy="418" r="1.3"/><circle cx="838" cy="418" r="1.3"/><circle cx="884" cy="418" r="1.3"/><circle cx="930" cy="418" r="1.3"/><circle cx="378" cy="464" r="1.3"/><circle cx="424" cy="464" r="1.3"/><circle cx="470" cy="464" r="1.3"/><circle cx="516" cy="464" r="1.3"/><circle cx="562" cy="464" r="1.3"/><circle cx="608" cy="464" r="1.3"/><circle cx="654" cy="464" r="1.3"/><circle cx="700" cy="464" r="1.3"/><circle cx="746" cy="464" r="1.3"/><circle cx="792" cy="464" r="1.3"/><circle cx="838" cy="464" r="1.3"/><circle cx="884" cy="464" r="1.3"/><circle cx="930" cy="464" r="1.3"/><circle cx="378" cy="510" r="1.3"/><circle cx="424" cy="510" r="1.3"/><circle cx="470" cy="510" r="1.3"/><circle cx="516" cy="510" r="1.3"/><circle cx="562" cy="510" r="1.3"/><circle cx="608" cy="510" r="1.3"/><circle cx="654" cy="510" r="1.3"/><circle cx="700" cy="510" r="1.3"/><circle cx="746" cy="510" r="1.3"/><circle cx="792" cy="510" r="1.3"/><circle cx="838" cy="510" r="1.3"/><circle cx="884" cy="510" r="1.3"/><circle cx="930" cy="510" r="1.3"/><circle cx="332" cy="556" r="1.3"/><circle cx="378" cy="556" r="1.3"/><circle cx="424" cy="556" r="1.3"/><circle cx="470" cy="556" r="1.3"/><circle cx="516" cy="556" r="1.3"/><circle cx="562" cy="556" r="1.3"/><circle cx="608" cy="556" r="1.3"/><circle cx="654" cy="556" r="1.3"/><circle cx="700" cy="556" r="1.3"/><circle cx="746" cy="556" r="1.3"/><circle cx="792" cy="556" r="1.3"/><circle cx="838" cy="556" r="1.3"/><circle cx="884" cy="556" r="1.3"/><circle cx="930" cy="556" r="1.3"/><circle cx="286" cy="602" r="1.3"/><circle cx="332" cy="602" r="1.3"/><circle cx="378" cy="602" r="1.3"/><circle cx="424" cy="602" r="1.3"/><circle cx="470" cy="602" r="1.3"/><circle cx="516" cy="602" r="1.3"/><circle cx="562" cy="602" r="1.3"/><circle cx="608" cy="602" r="1.3"/><circle cx="654" cy="602" r="1.3"/><circle cx="700" cy="602" r="1.3"/><circle cx="746" cy="602" r="1.3"/><circle cx="792" cy="602" r="1.3"/><circle cx="838" cy="602" r="1.3"/><circle cx="884" cy="602" r="1.3"/><circle cx="930" cy="602" r="1.3"/><circle cx="240" cy="648" r="1.3"/><circle cx="286" cy="648" r="1.3"/><circle cx="332" cy="648" r="1.3"/><circle cx="378" cy="648" r="1.3"/><circle cx="424" cy="648" r="1.3"/><circle cx="470" cy="648" r="1.3"/><circle cx="516" cy="648" r="1.3"/><circle cx="562" cy="648" r="1.3"/><circle cx="608" cy="648" r="1.3"/><circle cx="654" cy="648" r="1.3"/><circle cx="700" cy="648" r="1.3"/><circle cx="746" cy="648" r="1.3"/><circle cx="792" cy="648" r="1.3"/><circle cx="838" cy="648" r="1.3"/><circle cx="884" cy="648" r="1.3"/><circle cx="930" cy="648" r="1.3"/><circle cx="194" cy="694" r="1.3"/><circle cx="240" cy="694" r="1.3"/><circle cx="286" cy="694" r="1.3"/><circle cx="332" cy="694" r="1.3"/><circle cx="378" cy="694" r="1.3"/><circle cx="424" cy="694" r="1.3"/><circle cx="470" cy="694" r="1.3"/><circle cx="516" cy="694" r="1.3"/><circle cx="562" cy="694" r="1.3"/><circle cx="608" cy="694" r="1.3"/><circle cx="654" cy="694" r="1.3"/><circle cx="700" cy="694" r="1.3"/><circle cx="746" cy="694" r="1.3"/><circle cx="792" cy="694" r="1.3"/><circle cx="838" cy="694" r="1.3"/><circle cx="884" cy="694" r="1.3"/><circle cx="930" cy="694" r="1.3"/><circle cx="148" cy="740" r="1.3"/><circle cx="194" cy="740" r="1.3"/><circle cx="240" cy="740" r="1.3"/><circle cx="286" cy="740" r="1.3"/><circle cx="332" cy="740" r="1.3"/><circle cx="378" cy="740" r="1.3"/><circle cx="424" cy="740" r="1.3"/><circle cx="470" cy="740" r="1.3"/><circle cx="516" cy="740" r="1.3"/><circle cx="562" cy="740" r="1.3"/><circle cx="608" cy="740" r="1.3"/><circle cx="654" cy="740" r="1.3"/><circle cx="700" cy="740" r="1.3"/><circle cx="746" cy="740" r="1.3"/><circle cx="792" cy="740" r="1.3"/><circle cx="838" cy="740" r="1.3"/><circle cx="884" cy="740" r="1.3"/><circle cx="930" cy="740" r="1.3"/><circle cx="102" cy="786" r="1.3"/><circle cx="148" cy="786" r="1.3"/><circle cx="194" cy="786" r="1.3"/><circle cx="240" cy="786" r="1.3"/><circle cx="286" cy="786" r="1.3"/><circle cx="332" cy="786" r="1.3"/><circle cx="378" cy="786" r="1.3"/><circle cx="424" cy="786" r="1.3"/><circle cx="470" cy="786" r="1.3"/><circle cx="516" cy="786" r="1.3"/><circle cx="562" cy="786" r="1.3"/><circle cx="608" cy="786" r="1.3"/><circle cx="654" cy="786" r="1.3"/><circle cx="700" cy="786" r="1.3"/><circle cx="746" cy="786" r="1.3"/><circle cx="792" cy="786" r="1.3"/><circle cx="838" cy="786" r="1.3"/><circle cx="884" cy="786" r="1.3"/><circle cx="930" cy="786" r="1.3"/><circle cx="102" cy="832" r="1.3"/><circle cx="148" cy="832" r="1.3"/><circle cx="194" cy="832" r="1.3"/><circle cx="240" cy="832" r="1.3"/><circle cx="286" cy="832" r="1.3"/><circle cx="332" cy="832" r="1.3"/><circle cx="378" cy="832" r="1.3"/><circle cx="424" cy="832" r="1.3"/><circle cx="470" cy="832" r="1.3"/><circle cx="516" cy="832" r="1.3"/><circle cx="562" cy="832" r="1.3"/><circle cx="608" cy="832" r="1.3"/><circle cx="654" cy="832" r="1.3"/><circle cx="700" cy="832" r="1.3"/><circle cx="746" cy="832" r="1.3"/><circle cx="792" cy="832" r="1.3"/><circle cx="838" cy="832" r="1.3"/><circle cx="884" cy="832" r="1.3"/><circle cx="930" cy="832" r="1.3"/><circle cx="56" cy="878" r="1.3"/><circle cx="102" cy="878" r="1.3"/><circle cx="148" cy="878" r="1.3"/><circle cx="194" cy="878" r="1.3"/><circle cx="240" cy="878" r="1.3"/><circle cx="286" cy="878" r="1.3"/><circle cx="332" cy="878" r="1.3"/><circle cx="378" cy="878" r="1.3"/><circle cx="424" cy="878" r="1.3"/><circle cx="470" cy="878" r="1.3"/><circle cx="516" cy="878" r="1.3"/><circle cx="562" cy="878" r="1.3"/><circle cx="608" cy="878" r="1.3"/><circle cx="654" cy="878" r="1.3"/><circle cx="700" cy="878" r="1.3"/><circle cx="746" cy="878" r="1.3"/><circle cx="792" cy="878" r="1.3"/><circle cx="838" cy="878" r="1.3"/><circle cx="884" cy="878" r="1.3"/><circle cx="930" cy="878" r="1.3"/><circle cx="56" cy="924" r="1.3"/><circle cx="102" cy="924" r="1.3"/><circle cx="148" cy="924" r="1.3"/><circle cx="194" cy="924" r="1.3"/><circle cx="240" cy="924" r="1.3"/><circle cx="286" cy="924" r="1.3"/><circle cx="332" cy="924" r="1.3"/><circle cx="378" cy="924" r="1.3"/><circle cx="424" cy="924" r="1.3"/><circle cx="470" cy="924" r="1.3"/><circle cx="516" cy="924" r="1.3"/><circle cx="562" cy="924" r="1.3"/><circle cx="608" cy="924" r="1.3"/><circle cx="654" cy="924" r="1.3"/><circle cx="700" cy="924" r="1.3"/><circle cx="746" cy="924" r="1.3"/><circle cx="792" cy="924" r="1.3"/><circle cx="838" cy="924" r="1.3"/><circle cx="884" cy="924" r="1.3"/><circle cx="930" cy="924" r="1.3"/><circle cx="56" cy="970" r="1.3"/><circle cx="102" cy="970" r="1.3"/><circle cx="148" cy="970" r="1.3"/><circle cx="194" cy="970" r="1.3"/><circle cx="240" cy="970" r="1.3"/><circle cx="286" cy="970" r="1.3"/><circle cx="332" cy="970" r="1.3"/><circle cx="378" cy="970" r="1.3"/><circle cx="424" cy="970" r="1.3"/><circle cx="470" cy="970" r="1.3"/><circle cx="516" cy="970" r="1.3"/><circle cx="562" cy="970" r="1.3"/><circle cx="608" cy="970" r="1.3"/><circle cx="654" cy="970" r="1.3"/><circle cx="700" cy="970" r="1.3"/><circle cx="746" cy="970" r="1.3"/><circle cx="792" cy="970" r="1.3"/><circle cx="838" cy="970" r="1.3"/><circle cx="884" cy="970" r="1.3"/><circle cx="930" cy="970" r="1.3"/><circle cx="56" cy="1016" r="1.3"/><circle cx="102" cy="1016" r="1.3"/><circle cx="148" cy="1016" r="1.3"/><circle cx="194" cy="1016" r="1.3"/><circle cx="240" cy="1016" r="1.3"/><circle cx="286" cy="1016" r="1.3"/><circle cx="332" cy="1016" r="1.3"/><circle cx="378" cy="1016" r="1.3"/><circle cx="424" cy="1016" r="1.3"/><circle cx="470" cy="1016" r="1.3"/><circle cx="516" cy="1016" r="1.3"/><circle cx="562" cy="1016" r="1.3"/><circle cx="608" cy="1016" r="1.3"/><circle cx="654" cy="1016" r="1.3"/><circle cx="700" cy="1016" r="1.3"/><circle cx="746" cy="1016" r="1.3"/><circle cx="792" cy="1016" r="1.3"/><circle cx="838" cy="1016" r="1.3"/><circle cx="884" cy="1016" r="1.3"/><circle cx="930" cy="1016" r="1.3"/><circle cx="56" cy="1062" r="1.3"/><circle cx="102" cy="1062" r="1.3"/><circle cx="148" cy="1062" r="1.3"/><circle cx="194" cy="1062" r="1.3"/><circle cx="240" cy="1062" r="1.3"/><circle cx="286" cy="1062" r="1.3"/><circle cx="332" cy="1062" r="1.3"/><circle cx="378" cy="1062" r="1.3"/><circle cx="424" cy="1062" r="1.3"/><circle cx="470" cy="1062" r="1.3"/><circle cx="516" cy="1062" r="1.3"/><circle cx="562" cy="1062" r="1.3"/><circle cx="608" cy="1062" r="1.3"/><circle cx="654" cy="1062" r="1.3"/><circle cx="700" cy="1062" r="1.3"/><circle cx="746" cy="1062" r="1.3"/><circle cx="792" cy="1062" r="1.3"/><circle cx="838" cy="1062" r="1.3"/><circle cx="884" cy="1062" r="1.3"/><circle cx="930" cy="1062" r="1.3"/><circle cx="56" cy="1108" r="1.3"/><circle cx="102" cy="1108" r="1.3"/><circle cx="148" cy="1108" r="1.3"/><circle cx="194" cy="1108" r="1.3"/><circle cx="240" cy="1108" r="1.3"/><circle cx="286" cy="1108" r="1.3"/><circle cx="332" cy="1108" r="1.3"/><circle cx="378" cy="1108" r="1.3"/><circle cx="424" cy="1108" r="1.3"/><circle cx="470" cy="1108" r="1.3"/><circle cx="516" cy="1108" r="1.3"/><circle cx="562" cy="1108" r="1.3"/><circle cx="608" cy="1108" r="1.3"/><circle cx="654" cy="1108" r="1.3"/><circle cx="700" cy="1108" r="1.3"/><circle cx="746" cy="1108" r="1.3"/><circle cx="792" cy="1108" r="1.3"/><circle cx="838" cy="1108" r="1.3"/><circle cx="884" cy="1108" r="1.3"/><circle cx="930" cy="1108" r="1.3"/><circle cx="56" cy="1154" r="1.3"/><circle cx="102" cy="1154" r="1.3"/><circle cx="148" cy="1154" r="1.3"/><circle cx="194" cy="1154" r="1.3"/><circle cx="240" cy="1154" r="1.3"/><circle cx="286" cy="1154" r="1.3"/><circle cx="332" cy="1154" r="1.3"/><circle cx="378" cy="1154" r="1.3"/><circle cx="424" cy="1154" r="1.3"/><circle cx="470" cy="1154" r="1.3"/><circle cx="516" cy="1154" r="1.3"/><circle cx="562" cy="1154" r="1.3"/><circle cx="608" cy="1154" r="1.3"/><circle cx="654" cy="1154" r="1.3"/><circle cx="700" cy="1154" r="1.3"/><circle cx="746" cy="1154" r="1.3"/><circle cx="792" cy="1154" r="1.3"/><circle cx="838" cy="1154" r="1.3"/><circle cx="884" cy="1154" r="1.3"/><circle cx="930" cy="1154" r="1.3"/><circle cx="56" cy="1200" r="1.3"/><circle cx="102" cy="1200" r="1.3"/><circle cx="148" cy="1200" r="1.3"/><circle cx="194" cy="1200" r="1.3"/><circle cx="240" cy="1200" r="1.3"/><circle cx="286" cy="1200" r="1.3"/><circle cx="332" cy="1200" r="1.3"/><circle cx="378" cy="1200" r="1.3"/><circle cx="424" cy="1200" r="1.3"/><circle cx="470" cy="1200" r="1.3"/><circle cx="516" cy="1200" r="1.3"/><circle cx="562" cy="1200" r="1.3"/><circle cx="608" cy="1200" r="1.3"/><circle cx="654" cy="1200" r="1.3"/><circle cx="700" cy="1200" r="1.3"/><circle cx="746" cy="1200" r="1.3"/><circle cx="792" cy="1200" r="1.3"/><circle cx="838" cy="1200" r="1.3"/><circle cx="884" cy="1200" r="1.3"/><circle cx="930" cy="1200" r="1.3"/><circle cx="56" cy="1246" r="1.3"/><circle cx="102" cy="1246" r="1.3"/><circle cx="148" cy="1246" r="1.3"/><circle cx="194" cy="1246" r="1.3"/><circle cx="240" cy="1246" r="1.3"/><circle cx="286" cy="1246" r="1.3"/><circle cx="332" cy="1246" r="1.3"/><circle cx="378" cy="1246" r="1.3"/><circle cx="424" cy="1246" r="1.3"/><circle cx="470" cy="1246" r="1.3"/><circle cx="516" cy="1246" r="1.3"/><circle cx="562" cy="1246" r="1.3"/><circle cx="608" cy="1246" r="1.3"/><circle cx="654" cy="1246" r="1.3"/><circle cx="700" cy="1246" r="1.3"/><circle cx="746" cy="1246" r="1.3"/><circle cx="792" cy="1246" r="1.3"/><circle cx="838" cy="1246" r="1.3"/><circle cx="884" cy="1246" r="1.3"/><circle cx="930" cy="1246" r="1.3"/><circle cx="56" cy="1292" r="1.3"/><circle cx="102" cy="1292" r="1.3"/><circle cx="148" cy="1292" r="1.3"/><circle cx="194" cy="1292" r="1.3"/><circle cx="240" cy="1292" r="1.3"/><circle cx="286" cy="1292" r="1.3"/><circle cx="332" cy="1292" r="1.3"/><circle cx="378" cy="1292" r="1.3"/><circle cx="424" cy="1292" r="1.3"/><circle cx="470" cy="1292" r="1.3"/><circle cx="516" cy="1292" r="1.3"/><circle cx="562" cy="1292" r="1.3"/><circle cx="608" cy="1292" r="1.3"/><circle cx="654" cy="1292" r="1.3"/><circle cx="700" cy="1292" r="1.3"/><circle cx="746" cy="1292" r="1.3"/><circle cx="792" cy="1292" r="1.3"/><circle cx="838" cy="1292" r="1.3"/><circle cx="884" cy="1292" r="1.3"/><circle cx="930" cy="1292" r="1.3"/><circle cx="56" cy="1338" r="1.3"/><circle cx="102" cy="1338" r="1.3"/><circle cx="148" cy="1338" r="1.3"/><circle cx="194" cy="1338" r="1.3"/><circle cx="240" cy="1338" r="1.3"/><circle cx="286" cy="1338" r="1.3"/><circle cx="332" cy="1338" r="1.3"/><circle cx="378" cy="1338" r="1.3"/><circle cx="424" cy="1338" r="1.3"/><circle cx="470" cy="1338" r="1.3"/><circle cx="516" cy="1338" r="1.3"/><circle cx="562" cy="1338" r="1.3"/><circle cx="608" cy="1338" r="1.3"/><circle cx="654" cy="1338" r="1.3"/><circle cx="700" cy="1338" r="1.3"/><circle cx="746" cy="1338" r="1.3"/><circle cx="792" cy="1338" r="1.3"/><circle cx="838" cy="1338" r="1.3"/><circle cx="884" cy="1338" r="1.3"/><circle cx="930" cy="1338" r="1.3"/></g><circle cx="706" cy="872" r="336" fill="#0a1226" opacity="0.55"/><circle cx="706" cy="872" r="78" fill="none" stroke="#e8c36a" stroke-width="1.1" opacity="0.32"/><line x1="777.0" y1="872.0" x2="791.0" y2="872.0" stroke="#e8c36a" stroke-width="2.4" opacity="0.85"/><line x1="767.5" y1="907.5" x2="779.6" y2="914.5" stroke="#e8c36a" stroke-width="1.4" opacity="0.5"/><line x1="741.5" y1="933.5" x2="748.5" y2="945.6" stroke="#e8c36a" stroke-width="1.4" opacity="0.5"/><line x1="706.0" y1="943.0" x2="706.0" y2="957.0" stroke="#e8c36a" stroke-width="1.4" opacity="0.5"/><line x1="670.5" y1="933.5" x2="663.5" y2="945.6" stroke="#e8c36a" stroke-width="1.4" opacity="0.5"/><line x1="644.5" y1="907.5" x2="632.4" y2="914.5" stroke="#e8c36a" stroke-width="1.4" opacity="0.5"/><line x1="635.0" y1="872.0" x2="621.0" y2="872.0" stroke="#e8c36a" stroke-width="1.4" opacity="0.5"/><line x1="644.5" y1="836.5" x2="632.4" y2="829.5" stroke="#e8c36a" stroke-width="1.4" opacity="0.5"/><line x1="670.5" y1="810.5" x2="663.5" y2="798.4" stroke="#e8c36a" stroke-width="1.4" opacity="0.5"/><line x1="706.0" y1="801.0" x2="706.0" y2="787.0" stroke="#e8c36a" stroke-width="1.4" opacity="0.5"/><line x1="741.5" y1="810.5" x2="748.5" y2="798.4" stroke="#e8c36a" stroke-width="1.4" opacity="0.5"/><line x1="767.5" y1="836.5" x2="779.6" y2="829.5" stroke="#e8c36a" stroke-width="1.4" opacity="0.5"/><path d="M779.3,898.7 A78.0,78.0 0 0 1 671.8,942.1" fill="none" stroke="#e8c36a" stroke-width="5" stroke-linecap="round" opacity="0.9"/><circle cx="706" cy="872" r="126" fill="none" stroke="#7fa8dd" stroke-width="1.1" opacity="0.32"/><line x1="813.0" y1="924.2" x2="825.5" y2="930.3" stroke="#7fa8dd" stroke-width="2.4" opacity="0.85"/><line x1="761.9" y1="977.1" x2="768.4" y2="989.4" stroke="#7fa8dd" stroke-width="1.4" opacity="0.5"/><line x1="689.4" y1="989.8" x2="687.5" y2="1003.7" stroke="#7fa8dd" stroke-width="1.4" opacity="0.5"/><line x1="623.3" y1="957.6" x2="613.6" y2="967.7" stroke="#7fa8dd" stroke-width="1.4" opacity="0.5"/><line x1="588.8" y1="892.7" x2="575.0" y2="895.1" stroke="#7fa8dd" stroke-width="1.4" opacity="0.5"/><line x1="599.0" y1="819.8" x2="586.5" y2="813.7" stroke="#7fa8dd" stroke-width="1.4" opacity="0.5"/><line x1="650.1" y1="766.9" x2="643.6" y2="754.6" stroke="#7fa8dd" stroke-width="1.4" opacity="0.5"/><line x1="722.6" y1="754.2" x2="724.5" y2="740.3" stroke="#7fa8dd" stroke-width="1.4" opacity="0.5"/><line x1="788.7" y1="786.4" x2="798.4" y2="776.3" stroke="#7fa8dd" stroke-width="1.4" opacity="0.5"/><line x1="823.2" y1="851.3" x2="837.0" y2="848.9" stroke="#7fa8dd" stroke-width="1.4" opacity="0.5"/><path d="M580.3,880.8 A126.0,126.0 0 0 1 654.8,756.9" fill="none" stroke="#7fa8dd" stroke-width="5" stroke-linecap="round" opacity="0.9"/><circle cx="706" cy="872" r="180" fill="none" stroke="#c94f4f" stroke-width="1.1" opacity="0.32"/><line x1="797.7" y1="1018.7" x2="805.1" y2="1030.6" stroke="#c94f4f" stroke-width="2.4" opacity="0.85"/><line x1="667.1" y1="1040.6" x2="663.9" y2="1054.2" stroke="#c94f4f" stroke-width="1.4" opacity="0.5"/><line x1="559.3" y1="963.7" x2="547.4" y2="971.1" stroke="#c94f4f" stroke-width="1.4" opacity="0.5"/><line x1="537.4" y1="833.1" x2="523.8" y2="829.9" stroke="#c94f4f" stroke-width="1.4" opacity="0.5"/><line x1="614.3" y1="725.3" x2="606.9" y2="713.4" stroke="#c94f4f" stroke-width="1.4" opacity="0.5"/><line x1="744.9" y1="703.4" x2="748.1" y2="689.8" stroke="#c94f4f" stroke-width="1.4" opacity="0.5"/><line x1="852.7" y1="780.3" x2="864.6" y2="772.9" stroke="#c94f4f" stroke-width="1.4" opacity="0.5"/><line x1="874.6" y1="910.9" x2="888.2" y2="914.1" stroke="#c94f4f" stroke-width="1.4" opacity="0.5"/><path d="M828.8,740.4 A180.0,180.0 0 0 1 885.8,862.6" fill="none" stroke="#c94f4f" stroke-width="5" stroke-linecap="round" opacity="0.9"/><circle cx="706" cy="872" r="240" fill="none" stroke="#e8c36a" stroke-width="1.1" opacity="0.32"/><line x1="933.9" y1="920.4" x2="947.6" y2="923.4" stroke="#e8c36a" stroke-width="2.4" opacity="0.85"/><line x1="778.0" y1="1093.6" x2="782.3" y2="1106.9" stroke="#e8c36a" stroke-width="1.4" opacity="0.5"/><line x1="550.1" y1="1045.2" x2="540.7" y2="1055.6" stroke="#e8c36a" stroke-width="1.4" opacity="0.5"/><line x1="478.1" y1="823.6" x2="464.4" y2="820.6" stroke="#e8c36a" stroke-width="1.4" opacity="0.5"/><line x1="634.0" y1="650.4" x2="629.7" y2="637.1" stroke="#e8c36a" stroke-width="1.4" opacity="0.5"/><line x1="861.9" y1="698.8" x2="871.3" y2="688.4" stroke="#e8c36a" stroke-width="1.4" opacity="0.5"/><path d="M656.1,1106.8 A240.0,240.0 0 0 1 527.6,711.4" fill="none" stroke="#e8c36a" stroke-width="5" stroke-linecap="round" opacity="0.9"/><circle cx="706" cy="872" r="304" fill="none" stroke="#7fa8dd" stroke-width="1.1" opacity="0.32"/><line x1="933.5" y1="1062.9" x2="944.2" y2="1071.9" stroke="#7fa8dd" stroke-width="2.4" opacity="0.85"/><line x1="594.7" y1="1147.4" x2="589.5" y2="1160.4" stroke="#7fa8dd" stroke-width="1.4" opacity="0.5"/><line x1="409.7" y1="851.3" x2="395.8" y2="850.3" stroke="#7fa8dd" stroke-width="1.4" opacity="0.5"/><line x1="634.1" y1="583.8" x2="630.8" y2="570.2" stroke="#7fa8dd" stroke-width="1.4" opacity="0.5"/><line x1="957.9" y1="714.6" x2="969.7" y2="707.2" stroke="#7fa8dd" stroke-width="1.4" opacity="0.5"/><path d="M991.7,768.0 A304.0,304.0 0 0 1 938.9,1067.4" fill="none" stroke="#7fa8dd" stroke-width="5" stroke-linecap="round" opacity="0.9"/><circle cx="706" cy="872" r="34" fill="#0d1730" stroke="#e8c36a" stroke-width="1.4"/><circle cx="706" cy="872" r="7" fill="#f0d894"/><line x1="706" y1="872" x2="842.7" y2="565.0" stroke="#e05a5a" stroke-width="1.8" stroke-dasharray="7 6"/><circle cx="842.7" cy="565.0" r="5" fill="#e05a5a"/><path d="M828.0,597.9 L841.4,604.3 L854.5,611.3 L867.1,619.0 L879.2,627.3 L890.9,636.1 L902.0,645.6 L912.6,655.5 L922.6,666.0 L932.0,676.9 L940.8,688.2 L949.0,700.0 L956.5,712.1 L963.4,724.6 L969.6,737.4 L975.0,750.4 L979.8,763.7 L983.8,777.2 L987.1,790.8 L989.7,804.5 L991.6,818.4 L992.7,832.3 L993.0,846.1 L992.7,860.0 L991.6,873.8 L989.8,887.5 L987.2,901.0 L984.0,914.4 L980.0,927.6 L975.4,940.5 L970.1,953.1 L964.2,965.5 L957.6,977.4 L950.4,989.0 L942.6,1000.3 L934.2,1011.0 L925.3,1021.3 L915.8,1031.2 L905.9,1040.5 L895.5,1049.2 L884.6,1057.5 L873.3,1065.1 L861.7,1072.2 L849.7,1078.6 L837.4,1084.4 L824.8,1089.5 L811.9,1094.0 L798.9,1097.9 L785.6,1101.0 L772.2,1103.5 L758.7,1105.3 L745.2,1106.4 L731.5,1106.8 L717.9,1106.5 L704.3,1105.6 L690.7,1103.9 L677.3,1101.6 L664.0,1098.5 L650.8,1094.9 L637.9,1090.5 L625.2,1085.6 L612.7,1080.0 L600.5,1073.7 L588.7,1066.9 L577.2,1059.6 L566.1,1051.6 L555.4,1043.1 L545.1,1034.2 L535.3,1024.7 L526.0,1014.7 L517.1,1004.3 L508.8,993.6 L501.1,982.4 L493.9,970.8 L487.2,959.0 L481.2,946.8 L475.7,934.4 L470.9,921.7 L466.7,908.9 L463.1,895.9 L460.2,882.7 L457.9,869.4 L456.2,856.1 L455.2,842.7 L454.9,829.3 L455.2,816.0 L456.1,802.7 L457.6,789.5 L459.8,776.4 L462.6,763.5 L466.1,750.8 L470.1,738.2 L474.7,726.0 L479.9,714.0 L485.6,702.3 L491.8,690.9 L498.6,679.9 L505.9,669.3 L513.7,659.0 L521.9,649.2 L530.5,639.9 L539.6,631.0 L549.0,622.6 L558.8,614.7 L568.9,607.3 L579.4,600.5 L590.1,594.2 L601.0,588.5 L612.2,583.3 L623.5,578.8 L635.0,574.8 L646.6,571.4 L658.3,568.6 L670.1,566.4 L682.0,564.8 L693.8,563.8 L705.6,563.4 L717.3,563.6 L729.0,564.4 L740.5,565.8 L751.9,567.7 L763.1,570.3 L774.1,573.3 L784.9,576.9 L795.4,581.1 L805.7,585.7 L815.6,590.9 L825.2,596.5 L834.5,602.6 L843.3,609.1 L851.8,616.1 L859.9,623.4 L867.5,631.2 L874.7,639.3 L881.4,647.7 L887.6,656.4 L893.3,665.4 L898.5,674.6 L903.2,684.1 L907.4,693.8 L911.0,703.6 L914.1,713.6 L916.6,723.7 L918.6,733.8 L920.0,744.1 L920.9,754.4 L921.2,764.6 L921.0,774.9 L920.2,785.0 L918.9,795.1 L917.0,805.1 L914.6,815.0 L911.7,824.7 L908.2,834.2 L904.3,843.5 L899.9,852.5 L895.0,861.3 L889.7,869.8 L883.9,878.0 L877.7,885.9 L871.0,893.4 L864.0,900.5 L856.7,907.3 L848.9,913.7 L840.9,919.6 L832.6,925.1 L824.0,930.2 L815.1,934.8 L806.0,938.9 L796.7,942.6 L787.2,945.8 L777.6,948.4 L767.8,950.6 L757.9,952.3 L748.0,953.4 L738.0,954.1 L728.0,954.2 L718.0,953.9 L708.0,953.0 L698.0,951.6 L688.2,949.7 L678.4,947.3 L668.8,944.5 L659.3,941.1 L650.0,937.3 L640.9,933.1 L632.1,928.4 L623.4,923.2 L615.1,917.7 L607.0,911.7 L599.2,905.4 L591.7,898.7 L584.6,891.6 L577.8,884.2 L571.5,876.5 L565.4,868.5 L559.8,860.3 L554.6,851.7 L549.8,843.0 L545.5,834.0 L541.6,824.9 L538.1,815.6 L535.1,806.1 L532.5,796.6 L530.4,787.0 L528.8,777.2 L527.6,767.5 L526.9,757.7 L526.7,748.0 L526.9,738.2 L527.6,728.5 L528.7,718.9 L530.3,709.4 L532.3,700.0 L534.7,690.8 L537.6,681.7 L540.9,672.8 L544.6,664.1 L548.7,655.6 L553.1,647.4 L558.0,639.4 L563.1,631.7 L568.6,624.3 L574.5,617.2 L580.6,610.5 L587.0,604.0 L593.6,598.0 L600.5,592.2 L607.7,586.9 L615.0,581.9 L622.5,577.4 L630.2,573.2 L638.0,569.4 L645.9,566.1 L654.0,563.1 L662.1,560.6 L670.3,558.5 L678.5,556.8 L686.7,555.6 L694.9,554.7 L703.1,554.3 L711.2,554.3 L719.2,554.7 L727.2,555.5 L735.1,556.6 L742.8,558.2 L750.4,560.2 L757.8,562.5 L765.0,565.2 L772.0,568.2 L778.8,571.6 L785.3,575.3 L791.6,579.3 L797.6,583.6 L803.4,588.2 L808.8,593.0 L814.0,598.1 L818.8,603.5 L823.3,609.0 L827.5,614.7 L831.3,620.6 L834.8,626.7 L837.9,632.9 L840.7,639.3 L843.0,645.7 L845.1,652.2 L846.7,658.8 L848.0,665.5 L848.8,672.1 L849.3,678.8 L849.5,685.4 L849.3,692.1 L848.7,698.6 L847.7,705.1 L846.4,711.6 L844.7,717.9 L842.7,724.1 L840.3,730.1 L837.7,736.0 L834.7,741.7 L831.4,747.3 L827.8,752.6 L823.9,757.7 L819.7,762.6 L815.3,767.3 L810.7,771.7 L805.8,775.8 L800.7,779.7 L795.4,783.3 L789.9,786.6 L784.3,789.6 L778.4,792.2 L772.5,794.6 L766.4,796.7 L760.3,798.4 L754.0,799.8 L747.7,800.9 L741.3,801.6 L734.9,802.0 L728.5,802.1 L722.1,801.8 L715.7,801.3 L709.3,800.4 L703.0,799.1 L696.7,797.6 L690.6,795.7 L684.5,793.6 L678.5,791.1 L672.7,788.4 L667.0,785.4 L661.5,782.0 L656.1,778.5 L650.9,774.6 L645.9,770.6 L641.1,766.3 L636.5,761.7 L632.2,757.0 L628.0,752.1 L624.2,747.0 L620.5,741.7 L617.2,736.3 L614.1,730.7 L611.2,725.0 L608.7,719.2 L606.4,713.2 L604.4,707.3 L602.6,701.2 L601.2,695.1 L600.1,688.9 L599.2,682.7 L598.6,676.6 L598.3,670.4 L598.3,664.2 L598.6,658.1 L599.2,652.0 L600.0,646.0 L601.1,640.1 L602.4,634.3 L604.0,628.5 L605.9,622.9 L608.0,617.4 L610.3,612.1 L612.8,606.9 L615.6,601.8 L618.6,597.0 L621.7,592.3 L625.1,587.8 L628.6,583.5 L632.2,579.4 L636.1,575.5 L640.0,571.8 L644.1,568.4 L648.3,565.1 L652.6,562.1 L657.0,559.4 L661.5,556.9 L666.0,554.6 L670.6,552.6 L675.2,550.8 L679.8,549.3 L684.5,548.0 L689.1,546.9 L693.7,546.1 L698.3,545.5 L702.9,545.1 L707.4,545.0 L711.9,545.1 L716.2,545.5 L720.5,546.0 L724.7,546.8 L728.8,547.7 L732.8,548.9 L736.7,550.2 L740.4,551.8 L744.0,553.5 L747.4,555.3 L750.7,557.3 L753.8,559.5 L756.7,561.8 L759.5,564.2 L762.1,566.8 L764.5,569.4 L766.7,572.2 L768.7,575.0 L770.6,577.9 L772.2,580.9 L773.6,583.9 L774.9,586.9 L775.9,590.0 L776.7,593.1 L777.3,596.3 L777.8,599.4 L778.0,602.5 L778.0,605.6 L777.9,608.6 L777.5,611.6 L777.0,614.6 L776.3,617.5 L775.4,620.3 L774.4,623.1 L773.1,625.7 L771.7,628.3 L770.2,630.8 L768.5,633.1 L766.7,635.4 L764.8,637.5 L762.7,639.5 L760.5,641.3 L758.2,643.1 L755.8,644.6 L753.3,646.1 L750.8,647.3 L748.1,648.5 L745.4,649.5 L742.6,650.3 L739.8,650.9 L737.0,651.4 L734.1,651.8 L731.2,651.9 L728.3,652.0 L725.4,651.8 L722.5,651.5 L719.6,651.1 L716.7,650.5 L713.9,649.7 L711.1,648.8 L708.3,647.8 L705.6,646.6 L702.9,645.3 L700.4,643.8 L697.9,642.3 L695.4,640.6 L693.1,638.8 L690.8,636.8 L688.7,634.8 L686.6,632.7 L684.6,630.5 L682.8,628.2 L681.0,625.8 L679.4,623.4 L677.9,620.9 L676.5,618.4 L675.2,615.7 L674.1,613.1 L673.0,610.4 L672.1,607.7 L671.3,605.0 L670.7,602.3 L670.1,599.5 L669.7,596.8 L669.4,594.0 L669.2,591.3 L669.1,588.6 L669.1,585.9 L669.3,583.3 L669.5,580.7 L669.9,578.1 L670.3,575.6 L670.8,573.2 L671.5,570.8 L672.2,568.4" fill="none" stroke="#b8862f" stroke-width="15" stroke-linecap="round" opacity="0.10"/><path d="M828.0,597.9 L841.4,604.3 L854.5,611.3 L867.1,619.0 L879.2,627.3 L890.9,636.1 L902.0,645.6 L912.6,655.5 L922.6,666.0 L932.0,676.9 L940.8,688.2 L949.0,700.0 L956.5,712.1 L963.4,724.6 L969.6,737.4 L975.0,750.4 L979.8,763.7 L983.8,777.2 L987.1,790.8 L989.7,804.5 L991.6,818.4 L992.7,832.3 L993.0,846.1 L992.7,860.0 L991.6,873.8 L989.8,887.5 L987.2,901.0 L984.0,914.4 L980.0,927.6 L975.4,940.5 L970.1,953.1 L964.2,965.5 L957.6,977.4 L950.4,989.0 L942.6,1000.3 L934.2,1011.0 L925.3,1021.3 L915.8,1031.2 L905.9,1040.5 L895.5,1049.2 L884.6,1057.5 L873.3,1065.1 L861.7,1072.2 L849.7,1078.6 L837.4,1084.4 L824.8,1089.5 L811.9,1094.0 L798.9,1097.9 L785.6,1101.0 L772.2,1103.5 L758.7,1105.3 L745.2,1106.4 L731.5,1106.8 L717.9,1106.5 L704.3,1105.6 L690.7,1103.9 L677.3,1101.6 L664.0,1098.5 L650.8,1094.9 L637.9,1090.5 L625.2,1085.6 L612.7,1080.0 L600.5,1073.7 L588.7,1066.9 L577.2,1059.6 L566.1,1051.6 L555.4,1043.1 L545.1,1034.2 L535.3,1024.7 L526.0,1014.7 L517.1,1004.3 L508.8,993.6 L501.1,982.4 L493.9,970.8 L487.2,959.0 L481.2,946.8 L475.7,934.4 L470.9,921.7 L466.7,908.9 L463.1,895.9 L460.2,882.7 L457.9,869.4 L456.2,856.1 L455.2,842.7 L454.9,829.3 L455.2,816.0 L456.1,802.7 L457.6,789.5 L459.8,776.4 L462.6,763.5 L466.1,750.8 L470.1,738.2 L474.7,726.0 L479.9,714.0 L485.6,702.3 L491.8,690.9 L498.6,679.9 L505.9,669.3 L513.7,659.0 L521.9,649.2 L530.5,639.9 L539.6,631.0 L549.0,622.6 L558.8,614.7 L568.9,607.3 L579.4,600.5 L590.1,594.2 L601.0,588.5 L612.2,583.3 L623.5,578.8 L635.0,574.8 L646.6,571.4 L658.3,568.6 L670.1,566.4 L682.0,564.8 L693.8,563.8 L705.6,563.4 L717.3,563.6 L729.0,564.4 L740.5,565.8 L751.9,567.7 L763.1,570.3 L774.1,573.3 L784.9,576.9 L795.4,581.1 L805.7,585.7 L815.6,590.9 L825.2,596.5 L834.5,602.6 L843.3,609.1 L851.8,616.1 L859.9,623.4 L867.5,631.2 L874.7,639.3 L881.4,647.7 L887.6,656.4 L893.3,665.4 L898.5,674.6 L903.2,684.1 L907.4,693.8 L911.0,703.6 L914.1,713.6 L916.6,723.7 L918.6,733.8 L920.0,744.1 L920.9,754.4 L921.2,764.6 L921.0,774.9 L920.2,785.0 L918.9,795.1 L917.0,805.1 L914.6,815.0 L911.7,824.7 L908.2,834.2 L904.3,843.5 L899.9,852.5 L895.0,861.3 L889.7,869.8 L883.9,878.0 L877.7,885.9 L871.0,893.4 L864.0,900.5 L856.7,907.3 L848.9,913.7 L840.9,919.6 L832.6,925.1 L824.0,930.2 L815.1,934.8 L806.0,938.9 L796.7,942.6 L787.2,945.8 L777.6,948.4 L767.8,950.6 L757.9,952.3 L748.0,953.4 L738.0,954.1 L728.0,954.2 L718.0,953.9 L708.0,953.0 L698.0,951.6 L688.2,949.7 L678.4,947.3 L668.8,944.5 L659.3,941.1 L650.0,937.3 L640.9,933.1 L632.1,928.4 L623.4,923.2 L615.1,917.7 L607.0,911.7 L599.2,905.4 L591.7,898.7 L584.6,891.6 L577.8,884.2 L571.5,876.5 L565.4,868.5 L559.8,860.3 L554.6,851.7 L549.8,843.0 L545.5,834.0 L541.6,824.9 L538.1,815.6 L535.1,806.1 L532.5,796.6 L530.4,787.0 L528.8,777.2 L527.6,767.5 L526.9,757.7 L526.7,748.0 L526.9,738.2 L527.6,728.5 L528.7,718.9 L530.3,709.4 L532.3,700.0 L534.7,690.8 L537.6,681.7 L540.9,672.8 L544.6,664.1 L548.7,655.6 L553.1,647.4 L558.0,639.4 L563.1,631.7 L568.6,624.3 L574.5,617.2 L580.6,610.5 L587.0,604.0 L593.6,598.0 L600.5,592.2 L607.7,586.9 L615.0,581.9 L622.5,577.4 L630.2,573.2 L638.0,569.4 L645.9,566.1 L654.0,563.1 L662.1,560.6 L670.3,558.5 L678.5,556.8 L686.7,555.6 L694.9,554.7 L703.1,554.3 L711.2,554.3 L719.2,554.7 L727.2,555.5 L735.1,556.6 L742.8,558.2 L750.4,560.2 L757.8,562.5 L765.0,565.2 L772.0,568.2 L778.8,571.6 L785.3,575.3 L791.6,579.3 L797.6,583.6 L803.4,588.2 L808.8,593.0 L814.0,598.1 L818.8,603.5 L823.3,609.0 L827.5,614.7 L831.3,620.6 L834.8,626.7 L837.9,632.9 L840.7,639.3 L843.0,645.7 L845.1,652.2 L846.7,658.8 L848.0,665.5 L848.8,672.1 L849.3,678.8 L849.5,685.4 L849.3,692.1 L848.7,698.6 L847.7,705.1 L846.4,711.6 L844.7,717.9 L842.7,724.1 L840.3,730.1 L837.7,736.0 L834.7,741.7 L831.4,747.3 L827.8,752.6 L823.9,757.7 L819.7,762.6 L815.3,767.3 L810.7,771.7 L805.8,775.8 L800.7,779.7 L795.4,783.3 L789.9,786.6 L784.3,789.6 L778.4,792.2 L772.5,794.6 L766.4,796.7 L760.3,798.4 L754.0,799.8 L747.7,800.9 L741.3,801.6 L734.9,802.0 L728.5,802.1 L722.1,801.8 L715.7,801.3 L709.3,800.4 L703.0,799.1 L696.7,797.6 L690.6,795.7 L684.5,793.6 L678.5,791.1 L672.7,788.4 L667.0,785.4 L661.5,782.0 L656.1,778.5 L650.9,774.6 L645.9,770.6 L641.1,766.3 L636.5,761.7 L632.2,757.0 L628.0,752.1 L624.2,747.0 L620.5,741.7 L617.2,736.3 L614.1,730.7 L611.2,725.0 L608.7,719.2 L606.4,713.2 L604.4,707.3 L602.6,701.2 L601.2,695.1 L600.1,688.9 L599.2,682.7 L598.6,676.6 L598.3,670.4 L598.3,664.2 L598.6,658.1 L599.2,652.0 L600.0,646.0 L601.1,640.1 L602.4,634.3 L604.0,628.5 L605.9,622.9 L608.0,617.4 L610.3,612.1 L612.8,606.9 L615.6,601.8 L618.6,597.0 L621.7,592.3 L625.1,587.8 L628.6,583.5 L632.2,579.4 L636.1,575.5 L640.0,571.8 L644.1,568.4 L648.3,565.1 L652.6,562.1 L657.0,559.4 L661.5,556.9 L666.0,554.6 L670.6,552.6 L675.2,550.8 L679.8,549.3 L684.5,548.0 L689.1,546.9 L693.7,546.1 L698.3,545.5 L702.9,545.1 L707.4,545.0 L711.9,545.1 L716.2,545.5 L720.5,546.0 L724.7,546.8 L728.8,547.7 L732.8,548.9 L736.7,550.2 L740.4,551.8 L744.0,553.5 L747.4,555.3 L750.7,557.3 L753.8,559.5 L756.7,561.8 L759.5,564.2 L762.1,566.8 L764.5,569.4 L766.7,572.2 L768.7,575.0 L770.6,577.9 L772.2,580.9 L773.6,583.9 L774.9,586.9 L775.9,590.0 L776.7,593.1 L777.3,596.3 L777.8,599.4 L778.0,602.5 L778.0,605.6 L777.9,608.6 L777.5,611.6 L777.0,614.6 L776.3,617.5 L775.4,620.3 L774.4,623.1 L773.1,625.7 L771.7,628.3 L770.2,630.8 L768.5,633.1 L766.7,635.4 L764.8,637.5 L762.7,639.5 L760.5,641.3 L758.2,643.1 L755.8,644.6 L753.3,646.1 L750.8,647.3 L748.1,648.5 L745.4,649.5 L742.6,650.3 L739.8,650.9 L737.0,651.4 L734.1,651.8 L731.2,651.9 L728.3,652.0 L725.4,651.8 L722.5,651.5 L719.6,651.1 L716.7,650.5 L713.9,649.7 L711.1,648.8 L708.3,647.8 L705.6,646.6 L702.9,645.3 L700.4,643.8 L697.9,642.3 L695.4,640.6 L693.1,638.8 L690.8,636.8 L688.7,634.8 L686.6,632.7 L684.6,630.5 L682.8,628.2 L681.0,625.8 L679.4,623.4 L677.9,620.9 L676.5,618.4 L675.2,615.7 L674.1,613.1 L673.0,610.4 L672.1,607.7 L671.3,605.0 L670.7,602.3 L670.1,599.5 L669.7,596.8 L669.4,594.0 L669.2,591.3 L669.1,588.6 L669.1,585.9 L669.3,583.3 L669.5,580.7 L669.9,578.1 L670.3,575.6 L670.8,573.2 L671.5,570.8 L672.2,568.4" fill="none" stroke="#e8c36a" stroke-width="8.5" stroke-linecap="round" opacity="0.16"/><path d="M828.0,597.9 L841.4,604.3 L854.5,611.3 L867.1,619.0 L879.2,627.3 L890.9,636.1 L902.0,645.6 L912.6,655.5 L922.6,666.0 L932.0,676.9 L940.8,688.2 L949.0,700.0 L956.5,712.1 L963.4,724.6 L969.6,737.4 L975.0,750.4 L979.8,763.7 L983.8,777.2 L987.1,790.8 L989.7,804.5 L991.6,818.4 L992.7,832.3 L993.0,846.1 L992.7,860.0 L991.6,873.8 L989.8,887.5 L987.2,901.0 L984.0,914.4 L980.0,927.6 L975.4,940.5 L970.1,953.1 L964.2,965.5 L957.6,977.4 L950.4,989.0 L942.6,1000.3 L934.2,1011.0 L925.3,1021.3 L915.8,1031.2 L905.9,1040.5 L895.5,1049.2 L884.6,1057.5 L873.3,1065.1 L861.7,1072.2 L849.7,1078.6 L837.4,1084.4 L824.8,1089.5 L811.9,1094.0 L798.9,1097.9 L785.6,1101.0 L772.2,1103.5 L758.7,1105.3 L745.2,1106.4 L731.5,1106.8 L717.9,1106.5 L704.3,1105.6 L690.7,1103.9 L677.3,1101.6 L664.0,1098.5 L650.8,1094.9 L637.9,1090.5 L625.2,1085.6 L612.7,1080.0 L600.5,1073.7 L588.7,1066.9 L577.2,1059.6 L566.1,1051.6 L555.4,1043.1 L545.1,1034.2 L535.3,1024.7 L526.0,1014.7 L517.1,1004.3 L508.8,993.6 L501.1,982.4 L493.9,970.8 L487.2,959.0 L481.2,946.8 L475.7,934.4 L470.9,921.7 L466.7,908.9 L463.1,895.9 L460.2,882.7 L457.9,869.4 L456.2,856.1 L455.2,842.7 L454.9,829.3 L455.2,816.0 L456.1,802.7 L457.6,789.5 L459.8,776.4 L462.6,763.5 L466.1,750.8 L470.1,738.2 L474.7,726.0 L479.9,714.0 L485.6,702.3 L491.8,690.9 L498.6,679.9 L505.9,669.3 L513.7,659.0 L521.9,649.2 L530.5,639.9 L539.6,631.0 L549.0,622.6 L558.8,614.7 L568.9,607.3 L579.4,600.5 L590.1,594.2 L601.0,588.5 L612.2,583.3 L623.5,578.8 L635.0,574.8 L646.6,571.4 L658.3,568.6 L670.1,566.4 L682.0,564.8 L693.8,563.8 L705.6,563.4 L717.3,563.6 L729.0,564.4 L740.5,565.8 L751.9,567.7 L763.1,570.3 L774.1,573.3 L784.9,576.9 L795.4,581.1 L805.7,585.7 L815.6,590.9 L825.2,596.5 L834.5,602.6 L843.3,609.1 L851.8,616.1 L859.9,623.4 L867.5,631.2 L874.7,639.3 L881.4,647.7 L887.6,656.4 L893.3,665.4 L898.5,674.6 L903.2,684.1 L907.4,693.8 L911.0,703.6 L914.1,713.6 L916.6,723.7 L918.6,733.8 L920.0,744.1 L920.9,754.4 L921.2,764.6 L921.0,774.9 L920.2,785.0 L918.9,795.1 L917.0,805.1 L914.6,815.0 L911.7,824.7 L908.2,834.2 L904.3,843.5 L899.9,852.5 L895.0,861.3 L889.7,869.8 L883.9,878.0 L877.7,885.9 L871.0,893.4 L864.0,900.5 L856.7,907.3 L848.9,913.7 L840.9,919.6 L832.6,925.1 L824.0,930.2 L815.1,934.8 L806.0,938.9 L796.7,942.6 L787.2,945.8 L777.6,948.4 L767.8,950.6 L757.9,952.3 L748.0,953.4 L738.0,954.1 L728.0,954.2 L718.0,953.9 L708.0,953.0 L698.0,951.6 L688.2,949.7 L678.4,947.3 L668.8,944.5 L659.3,941.1 L650.0,937.3 L640.9,933.1 L632.1,928.4 L623.4,923.2 L615.1,917.7 L607.0,911.7 L599.2,905.4 L591.7,898.7 L584.6,891.6 L577.8,884.2 L571.5,876.5 L565.4,868.5 L559.8,860.3 L554.6,851.7 L549.8,843.0 L545.5,834.0 L541.6,824.9 L538.1,815.6 L535.1,806.1 L532.5,796.6 L530.4,787.0 L528.8,777.2 L527.6,767.5 L526.9,757.7 L526.7,748.0 L526.9,738.2 L527.6,728.5 L528.7,718.9 L530.3,709.4 L532.3,700.0 L534.7,690.8 L537.6,681.7 L540.9,672.8 L544.6,664.1 L548.7,655.6 L553.1,647.4 L558.0,639.4 L563.1,631.7 L568.6,624.3 L574.5,617.2 L580.6,610.5 L587.0,604.0 L593.6,598.0 L600.5,592.2 L607.7,586.9 L615.0,581.9 L622.5,577.4 L630.2,573.2 L638.0,569.4 L645.9,566.1 L654.0,563.1 L662.1,560.6 L670.3,558.5 L678.5,556.8 L686.7,555.6 L694.9,554.7 L703.1,554.3 L711.2,554.3 L719.2,554.7 L727.2,555.5 L735.1,556.6 L742.8,558.2 L750.4,560.2 L757.8,562.5 L765.0,565.2 L772.0,568.2 L778.8,571.6 L785.3,575.3 L791.6,579.3 L797.6,583.6 L803.4,588.2 L808.8,593.0 L814.0,598.1 L818.8,603.5 L823.3,609.0 L827.5,614.7 L831.3,620.6 L834.8,626.7 L837.9,632.9 L840.7,639.3 L843.0,645.7 L845.1,652.2 L846.7,658.8 L848.0,665.5 L848.8,672.1 L849.3,678.8 L849.5,685.4 L849.3,692.1 L848.7,698.6 L847.7,705.1 L846.4,711.6 L844.7,717.9 L842.7,724.1 L840.3,730.1 L837.7,736.0 L834.7,741.7 L831.4,747.3 L827.8,752.6 L823.9,757.7 L819.7,762.6 L815.3,767.3 L810.7,771.7 L805.8,775.8 L800.7,779.7 L795.4,783.3 L789.9,786.6 L784.3,789.6 L778.4,792.2 L772.5,794.6 L766.4,796.7 L760.3,798.4 L754.0,799.8 L747.7,800.9 L741.3,801.6 L734.9,802.0 L728.5,802.1 L722.1,801.8 L715.7,801.3 L709.3,800.4 L703.0,799.1 L696.7,797.6 L690.6,795.7 L684.5,793.6 L678.5,791.1 L672.7,788.4 L667.0,785.4 L661.5,782.0 L656.1,778.5 L650.9,774.6 L645.9,770.6 L641.1,766.3 L636.5,761.7 L632.2,757.0 L628.0,752.1 L624.2,747.0 L620.5,741.7 L617.2,736.3 L614.1,730.7 L611.2,725.0 L608.7,719.2 L606.4,713.2 L604.4,707.3 L602.6,701.2 L601.2,695.1 L600.1,688.9 L599.2,682.7 L598.6,676.6 L598.3,670.4 L598.3,664.2 L598.6,658.1 L599.2,652.0 L600.0,646.0 L601.1,640.1 L602.4,634.3 L604.0,628.5 L605.9,622.9 L608.0,617.4 L610.3,612.1 L612.8,606.9 L615.6,601.8 L618.6,597.0 L621.7,592.3 L625.1,587.8 L628.6,583.5 L632.2,579.4 L636.1,575.5 L640.0,571.8 L644.1,568.4 L648.3,565.1 L652.6,562.1 L657.0,559.4 L661.5,556.9 L666.0,554.6 L670.6,552.6 L675.2,550.8 L679.8,549.3 L684.5,548.0 L689.1,546.9 L693.7,546.1 L698.3,545.5 L702.9,545.1 L707.4,545.0 L711.9,545.1 L716.2,545.5 L720.5,546.0 L724.7,546.8 L728.8,547.7 L732.8,548.9 L736.7,550.2 L740.4,551.8 L744.0,553.5 L747.4,555.3 L750.7,557.3 L753.8,559.5 L756.7,561.8 L759.5,564.2 L762.1,566.8 L764.5,569.4 L766.7,572.2 L768.7,575.0 L770.6,577.9 L772.2,580.9 L773.6,583.9 L774.9,586.9 L775.9,590.0 L776.7,593.1 L777.3,596.3 L777.8,599.4 L778.0,602.5 L778.0,605.6 L777.9,608.6 L777.5,611.6 L777.0,614.6 L776.3,617.5 L775.4,620.3 L774.4,623.1 L773.1,625.7 L771.7,628.3 L770.2,630.8 L768.5,633.1 L766.7,635.4 L764.8,637.5 L762.7,639.5 L760.5,641.3 L758.2,643.1 L755.8,644.6 L753.3,646.1 L750.8,647.3 L748.1,648.5 L745.4,649.5 L742.6,650.3 L739.8,650.9 L737.0,651.4 L734.1,651.8 L731.2,651.9 L728.3,652.0 L725.4,651.8 L722.5,651.5 L719.6,651.1 L716.7,650.5 L713.9,649.7 L711.1,648.8 L708.3,647.8 L705.6,646.6 L702.9,645.3 L700.4,643.8 L697.9,642.3 L695.4,640.6 L693.1,638.8 L690.8,636.8 L688.7,634.8 L686.6,632.7 L684.6,630.5 L682.8,628.2 L681.0,625.8 L679.4,623.4 L677.9,620.9 L676.5,618.4 L675.2,615.7 L674.1,613.1 L673.0,610.4 L672.1,607.7 L671.3,605.0 L670.7,602.3 L670.1,599.5 L669.7,596.8 L669.4,594.0 L669.2,591.3 L669.1,588.6 L669.1,585.9 L669.3,583.3 L669.5,580.7 L669.9,578.1 L670.3,575.6 L670.8,573.2 L671.5,570.8 L672.2,568.4" fill="none" stroke="url(#gold)" stroke-width="4.4" stroke-linecap="round" stroke-linejoin="round"/><circle cx="828.0" cy="597.9" r="4.6" fill="#f0d894" opacity="0.95"/><circle cx="828.0" cy="597.9" r="11" fill="none" stroke="#e8c36a" stroke-width="1.1" opacity="0.45"/><circle cx="474.7" cy="726.0" r="4.6" fill="#f0d894" opacity="0.95"/><circle cx="474.7" cy="726.0" r="11" fill="none" stroke="#e8c36a" stroke-width="1.1" opacity="0.45"/><circle cx="650.0" cy="937.3" r="4.6" fill="#f0d894" opacity="0.95"/><circle cx="650.0" cy="937.3" r="11" fill="none" stroke="#e8c36a" stroke-width="1.1" opacity="0.45"/><circle cx="842.7" cy="724.1" r="4.6" fill="#f0d894" opacity="0.95"/><circle cx="842.7" cy="724.1" r="11" fill="none" stroke="#e8c36a" stroke-width="1.1" opacity="0.45"/><circle cx="720.5" cy="546.0" r="4.6" fill="#f0d894" opacity="0.95"/><circle cx="720.5" cy="546.0" r="11" fill="none" stroke="#e8c36a" stroke-width="1.1" opacity="0.45"/><circle cx="672.2" cy="568.4" r="4.6" fill="#f0d894" opacity="0.95"/><circle cx="672.2" cy="568.4" r="11" fill="none" stroke="#e8c36a" stroke-width="1.1" opacity="0.45"/><rect x="30" y="30" width="940" height="1354" fill="none" stroke="#e8c36a" stroke-width="1.2" opacity="0.26"/><text x="82" y="182" font-size="14.5" letter-spacing="6.5" fill="#c8a24a" font-weight="600">ACADEMIC MONOGRAPH</text><text x="78" y="336" font-size="108" font-weight="800" fill="#f6f2e8" letter-spacing="6">错位的时间</text><rect x="82" y="378" width="330" height="2.6" fill="url(#rule)"/><text x="82" y="430" font-size="23" fill="#b9c6dd" letter-spacing="0.5">为什么我们总是来不及：</text><text x="82" y="466" font-size="23" fill="#b9c6dd" letter-spacing="0.5">社会系统的时间错配与可控性边界</text><text x="82" y="504" font-size="12.5" letter-spacing="2.2" fill="#7f8db0">WHY WE ARE ALWAYS TOO LATE · TIME MISMATCH AND THE BOUNDARY OF CONTROLLABILITY</text><rect x="82" y="548" width="90" height="38" rx="19" fill="#ffffff" opacity="0.06"/><text x="98" y="574" font-size="18" fill="#e8c36a" font-weight="700">Θ</text><text x="120" y="574" font-size="14.5" fill="#c3cee2">租佃份额</text><rect x="184" y="548" width="105" height="38" rx="19" fill="#ffffff" opacity="0.06"/><text x="200" y="574" font-size="18" fill="#e8c36a" font-weight="700">I</text><text x="222" y="574" font-size="14.5" fill="#c3cee2">组织复杂度</text><rect x="301" y="548" width="90" height="38" rx="19" fill="#ffffff" opacity="0.06"/><text x="317" y="574" font-size="18" fill="#e8c36a" font-weight="700">κ</text><text x="339" y="574" font-size="14.5" fill="#c3cee2">地缘耦合</text><rect x="403" y="548" width="90" height="38" rx="19" fill="#ffffff" opacity="0.06"/><text x="419" y="574" font-size="18" fill="#e8c36a" font-weight="700">τ</text><text x="441" y="574" font-size="14.5" fill="#c3cee2">时间错配</text><rect x="82" y="1246" width="836" height="1" fill="#ffffff" opacity="0.14"/><text x="82" y="1308" font-size="30" font-weight="700" fill="#eef3fb" letter-spacing="4">李毅芃　著</text><text x="82" y="1343" font-size="13.5" letter-spacing="3.4" fill="#7f8db0">LI YIPENG　·　2026</text><text x="918" y="1308" font-size="13.5" text-anchor="end" fill="#7f8db0" letter-spacing="1.5">时间错配 · 可控性 · 局部可描述性</text><text x="918" y="1343" font-size="13.5" text-anchor="end" fill="#5f6f92" letter-spacing="1">TIME MISMATCH · CONTROLLABILITY · LOCAL DESCRIPTABILITY</text></svg>
