<svg xmlns="http://www.w3.org/2000/svg" viewBox="0 0 1060 620" width="1060" height="620" font-family="'Microsoft YaHei','SimHei',Arial,sans-serif">
<rect width="1060" height="620" fill="#ffffff"/>
<text x="530" y="44" font-size="21" font-weight="700" fill="#1a1a1a" text-anchor="middle">三个情景的适应能力分解与风险结果</text><text x="530" y="68" font-size="13.5" fill="#666" text-anchor="middle">AdaptiveCapacity = ¼(Reserves + Substitutability + Diversification + Θ) × (1 − κ/5)</text><rect x="60" y="90" width="300" height="470" rx="10" fill="#3a6ea5" opacity="0.045"/><rect x="60" y="90" width="300" height="4" rx="2" fill="#3a6ea5"/><text x="210.0" y="126" font-size="16" font-weight="700" fill="#222" text-anchor="middle">台湾芯片中断</text><text x="210.0" y="147" font-size="13" fill="#777" text-anchor="middle">60 天</text><text x="82" y="176" font-size="13" fill="#555" text-anchor="end">缓冲</text><rect x="152" y="160" width="200" height="20" rx="4" fill="#eef1f6"/><rect x="152" y="160" width="20.0" height="20" rx="4" fill="#3a6ea5" opacity="0.85"/><text x="360" y="175" font-size="12.5" fill="#333">0.10</text><text x="82" y="222" font-size="13" fill="#555" text-anchor="end">替代</text><rect x="152" y="206" width="200" height="20" rx="4" fill="#eef1f6"/><rect x="152" y="206" width="30.0" height="20" rx="4" fill="#009E73" opacity="0.85"/><text x="360" y="221" font-size="12.5" fill="#333">0.15</text><text x="82" y="268" font-size="13" fill="#555" text-anchor="end">多元</text><rect x="152" y="252" width="200" height="20" rx="4" fill="#eef1f6"/><rect x="152" y="252" width="60.0" height="20" rx="4" fill="#b8862f" opacity="0.85"/><text x="360" y="267" font-size="12.5" fill="#333">0.30</text><text x="82" y="314" font-size="13" fill="#555" text-anchor="end">Θ 韧性</text><rect x="152" y="298" width="200" height="20" rx="4" fill="#eef1f6"/><rect x="152" y="298" width="180.0" height="20" rx="4" fill="#6a4c93" opacity="0.85"/><text x="360" y="313" font-size="12.5" fill="#333">0.90</text><text x="82" y="360" font-size="13" fill="#555" text-anchor="end">κ 惩罚</text><rect x="152" y="344" width="200" height="20" rx="4" fill="#eef1f6"/><rect x="152" y="344" width="140.0" height="20" rx="4" fill="#c94f4f" opacity="0.85"/><text x="360" y="359" font-size="12.5" fill="#333">3.5/5</text><line x1="80" y1="430" x2="340" y2="430" stroke="#ddd"/><text x="84" y="466" font-size="13" fill="#666">Risk(S)</text><text x="336" y="472" font-size="34" font-weight="800" fill="#3a6ea5" text-anchor="end">0.46</text><text x="336" y="492" font-size="12" fill="#888" text-anchor="end">±0.10</text><text x="84" y="500" font-size="12" fill="#888">Hazard 70.0%　Exposure 8.0%</text><text x="210.0" y="536" font-size="13.5" font-weight="600" fill="#3a6ea5" text-anchor="middle">框架精确，可指导政策</text><rect x="390" y="90" width="300" height="470" rx="10" fill="#b8862f" opacity="0.045"/><rect x="390" y="90" width="300" height="4" rx="2" fill="#b8862f"/><text x="540.0" y="126" font-size="16" font-weight="700" fill="#222" text-anchor="middle">东南亚债务</text><text x="540.0" y="147" font-size="13" fill="#777" text-anchor="middle">72 小时</text><text x="82" y="176" font-size="13" fill="#555" text-anchor="end">缓冲</text><rect x="482" y="160" width="200" height="20" rx="4" fill="#eef1f6"/><rect x="482" y="160" width="40.0" height="20" rx="4" fill="#3a6ea5" opacity="0.85"/><text x="690" y="175" font-size="12.5" fill="#333">0.20</text><text x="82" y="222" font-size="13" fill="#555" text-anchor="end">替代</text><rect x="482" y="206" width="200" height="20" rx="4" fill="#eef1f6"/><rect x="482" y="206" width="120.0" height="20" rx="4" fill="#009E73" opacity="0.85"/><text x="690" y="221" font-size="12.5" fill="#333">0.60</text><text x="82" y="268" font-size="13" fill="#555" text-anchor="end">多元</text><rect x="482" y="252" width="200" height="20" rx="4" fill="#eef1f6"/><rect x="482" y="252" width="160.0" height="20" rx="4" fill="#b8862f" opacity="0.85"/><text x="690" y="267" font-size="12.5" fill="#333">0.80</text><text x="82" y="314" font-size="13" fill="#555" text-anchor="end">Θ 韧性</text><rect x="482" y="298" width="200" height="20" rx="4" fill="#eef1f6"/><rect x="482" y="298" width="80.0" height="20" rx="4" fill="#6a4c93" opacity="0.85"/><text x="690" y="313" font-size="12.5" fill="#333">0.40</text><text x="82" y="360" font-size="13" fill="#555" text-anchor="end">κ 惩罚</text><rect x="482" y="344" width="200" height="20" rx="4" fill="#eef1f6"/><rect x="482" y="344" width="140.0" height="20" rx="4" fill="#c94f4f" opacity="0.85"/><text x="690" y="359" font-size="12.5" fill="#333">3.5/5</text><line x1="410" y1="430" x2="670" y2="430" stroke="#ddd"/><text x="414" y="466" font-size="13" fill="#666">Risk(S)</text><text x="666" y="472" font-size="34" font-weight="800" fill="#b8862f" text-anchor="end">0.28</text><text x="666" y="492" font-size="12" fill="#888" text-anchor="end">±0.25</text><text x="414" y="500" font-size="12" fill="#888">Hazard 60.0%　Exposure 3.5%</text><text x="540.0" y="536" font-size="13.5" font-weight="600" fill="#b8862f" text-anchor="middle">框架有用，可排序选项</text><rect x="720" y="90" width="300" height="470" rx="10" fill="#c94f4f" opacity="0.045"/><rect x="720" y="90" width="300" height="4" rx="2" fill="#c94f4f"/><text x="870.0" y="126" font-size="16" font-weight="700" fill="#222" text-anchor="middle">全球债务</text><text x="870.0" y="147" font-size="13" fill="#777" text-anchor="middle">同步</text><text x="82" y="176" font-size="13" fill="#555" text-anchor="end">缓冲</text><rect x="812" y="160" width="200" height="20" rx="4" fill="#eef1f6"/><rect x="812" y="160" width="10.0" height="20" rx="4" fill="#3a6ea5" opacity="0.85"/><text x="1020" y="175" font-size="12.5" fill="#333">0.05</text><text x="82" y="222" font-size="13" fill="#555" text-anchor="end">替代</text><rect x="812" y="206" width="200" height="20" rx="4" fill="#eef1f6"/><rect x="812" y="206" width="0.0" height="20" rx="4" fill="#009E73" opacity="0.85"/><text x="1020" y="221" font-size="12.5" fill="#333">0.00</text><text x="82" y="268" font-size="13" fill="#555" text-anchor="end">多元</text><rect x="812" y="252" width="200" height="20" rx="4" fill="#eef1f6"/><rect x="812" y="252" width="0.0" height="20" rx="4" fill="#b8862f" opacity="0.85"/><text x="1020" y="267" font-size="12.5" fill="#333">0.00</text><text x="82" y="314" font-size="13" fill="#555" text-anchor="end">Θ 韧性</text><rect x="812" y="298" width="200" height="20" rx="4" fill="#eef1f6"/><rect x="812" y="298" width="100.0" height="20" rx="4" fill="#6a4c93" opacity="0.85"/><text x="1020" y="313" font-size="12.5" fill="#333">0.50</text><text x="82" y="360" font-size="13" fill="#555" text-anchor="end">κ 惩罚</text><rect x="812" y="344" width="200" height="20" rx="4" fill="#eef1f6"/><rect x="812" y="344" width="200.0" height="20" rx="4" fill="#c94f4f" opacity="0.85"/><text x="1020" y="359" font-size="12.5" fill="#333">5.0/5</text><line x1="740" y1="430" x2="1000" y2="430" stroke="#ddd"/><text x="744" y="466" font-size="13" fill="#666">Risk(S)</text><text x="996" y="472" font-size="34" font-weight="800" fill="#c94f4f" text-anchor="end">0.55</text><text x="996" y="492" font-size="12" fill="#888" text-anchor="end">±0.60</text><text x="744" y="500" font-size="12" fill="#888">Hazard 60.0%　Exposure 100.0%</text><text x="870.0" y="536" font-size="13.5" font-weight="600" fill="#c94f4f" text-anchor="middle">框架失效，需政治判断</text></svg>
