<svg xmlns="http://www.w3.org/2000/svg" viewBox="0 0 1060 620" width="1060" height="620" font-family="'Microsoft YaHei','SimHei',Arial,sans-serif">
<rect width="1060" height="620" fill="#ffffff"/>
<text x="530" y="44" font-size="21" font-weight="700" fill="#1a1a1a" text-anchor="middle">冲击类型 × 政策选项：有效性矩阵</text><text x="530" y="68" font-size="13.5" fill="#666" text-anchor="middle">深绿 = 首选；浅绿 = 次选；灰 = 无效；红 = 可能有害（示意，质量 C）</text><text x="284.0" y="98" font-size="12.5" fill="#333" text-anchor="middle">战略库存</text><text x="392.0" y="98" font-size="12.5" fill="#333" text-anchor="middle">多元化协议</text><text x="500.0" y="98" font-size="12.5" fill="#333" text-anchor="middle">央行／IMF 协调</text><text x="608.0" y="98" font-size="12.5" fill="#333" text-anchor="middle">产能疏散</text><text x="716.0" y="98" font-size="12.5" fill="#333" text-anchor="middle">反垄断／增产</text><text x="824.0" y="98" font-size="12.5" fill="#333" text-anchor="middle">价格管制</text><text x="932.0" y="98" font-size="12.5" fill="#333" text-anchor="middle">资本管制</text><text x="216" y="141.0" font-size="12.5" fill="#333" text-anchor="end">产品冲击</text><text x="216" y="156.0" font-size="12.5" fill="#333" text-anchor="end">（芯片、石油）</text><rect x="230" y="110" width="102" height="64" rx="5" fill="#1f7a5c"/><text x="281.0" y="146.0" font-size="12" fill="#fff" text-anchor="middle">首选</text><rect x="338" y="110" width="102" height="64" rx="5" fill="#8fc7ad"/><text x="389.0" y="146.0" font-size="12" fill="#333" text-anchor="middle">次选</text><rect x="446" y="110" width="102" height="64" rx="5" fill="#eceff3"/><text x="497.0" y="146.0" font-size="12" fill="#333" text-anchor="middle">—</text><rect x="554" y="110" width="102" height="64" rx="5" fill="#eceff3"/><text x="605.0" y="146.0" font-size="12" fill="#333" text-anchor="middle">—</text><rect x="662" y="110" width="102" height="64" rx="5" fill="#eceff3"/><text x="713.0" y="146.0" font-size="12" fill="#333" text-anchor="middle">—</text><rect x="770" y="110" width="102" height="64" rx="5" fill="#d98a8a"/><text x="821.0" y="146.0" font-size="12" fill="#333" text-anchor="middle">有害</text><rect x="878" y="110" width="102" height="64" rx="5" fill="#eceff3"/><text x="929.0" y="146.0" font-size="12" fill="#333" text-anchor="middle">—</text><text x="216" y="211.0" font-size="12.5" fill="#333" text-anchor="end">区域农业危机</text><text x="216" y="226.0" font-size="12.5" fill="#333" text-anchor="end">（出口禁令）</text><rect x="230" y="180" width="102" height="64" rx="5" fill="#8fc7ad"/><text x="281.0" y="216.0" font-size="12" fill="#333" text-anchor="middle">次选</text><rect x="338" y="180" width="102" height="64" rx="5" fill="#1f7a5c"/><text x="389.0" y="216.0" font-size="12" fill="#fff" text-anchor="middle">首选</text><rect x="446" y="180" width="102" height="64" rx="5" fill="#eceff3"/><text x="497.0" y="216.0" font-size="12" fill="#333" text-anchor="middle">—</text><rect x="554" y="180" width="102" height="64" rx="5" fill="#eceff3"/><text x="605.0" y="216.0" font-size="12" fill="#333" text-anchor="middle">—</text><rect x="662" y="180" width="102" height="64" rx="5" fill="#eceff3"/><text x="713.0" y="216.0" font-size="12" fill="#333" text-anchor="middle">—</text><rect x="770" y="180" width="102" height="64" rx="5" fill="#d98a8a"/><text x="821.0" y="216.0" font-size="12" fill="#333" text-anchor="middle">有害</text><rect x="878" y="180" width="102" height="64" rx="5" fill="#eceff3"/><text x="929.0" y="216.0" font-size="12" fill="#333" text-anchor="middle">—</text><text x="216" y="281.0" font-size="12.5" fill="#333" text-anchor="end">金融冲击</text><text x="216" y="296.0" font-size="12.5" fill="#333" text-anchor="end">（融资枯竭）</text><rect x="230" y="250" width="102" height="64" rx="5" fill="#8fc7ad"/><text x="281.0" y="286.0" font-size="12" fill="#333" text-anchor="middle">次选</text><rect x="338" y="250" width="102" height="64" rx="5" fill="#eceff3"/><text x="389.0" y="286.0" font-size="12" fill="#333" text-anchor="middle">—</text><rect x="446" y="250" width="102" height="64" rx="5" fill="#1f7a5c"/><text x="497.0" y="286.0" font-size="12" fill="#fff" text-anchor="middle">首选</text><rect x="554" y="250" width="102" height="64" rx="5" fill="#eceff3"/><text x="605.0" y="286.0" font-size="12" fill="#333" text-anchor="middle">—</text><rect x="662" y="250" width="102" height="64" rx="5" fill="#eceff3"/><text x="713.0" y="286.0" font-size="12" fill="#333" text-anchor="middle">—</text><rect x="770" y="250" width="102" height="64" rx="5" fill="#eceff3"/><text x="821.0" y="286.0" font-size="12" fill="#333" text-anchor="middle">—</text><rect x="878" y="250" width="102" height="64" rx="5" fill="#d98a8a"/><text x="929.0" y="286.0" font-size="12" fill="#333" text-anchor="middle">有害</text><text x="216" y="351.0" font-size="12.5" fill="#333" text-anchor="end">供应链断裂</text><text x="216" y="366.0" font-size="12.5" fill="#333" text-anchor="end">（物流中断）</text><rect x="230" y="320" width="102" height="64" rx="5" fill="#1f7a5c"/><text x="281.0" y="356.0" font-size="12" fill="#fff" text-anchor="middle">首选</text><rect x="338" y="320" width="102" height="64" rx="5" fill="#8fc7ad"/><text x="389.0" y="356.0" font-size="12" fill="#333" text-anchor="middle">次选</text><rect x="446" y="320" width="102" height="64" rx="5" fill="#eceff3"/><text x="497.0" y="356.0" font-size="12" fill="#333" text-anchor="middle">—</text><rect x="554" y="320" width="102" height="64" rx="5" fill="#1f7a5c"/><text x="605.0" y="356.0" font-size="12" fill="#fff" text-anchor="middle">首选</text><rect x="662" y="320" width="102" height="64" rx="5" fill="#eceff3"/><text x="713.0" y="356.0" font-size="12" fill="#333" text-anchor="middle">—</text><rect x="770" y="320" width="102" height="64" rx="5" fill="#eceff3"/><text x="821.0" y="356.0" font-size="12" fill="#333" text-anchor="middle">—</text><rect x="878" y="320" width="102" height="64" rx="5" fill="#eceff3"/><text x="929.0" y="356.0" font-size="12" fill="#333" text-anchor="middle">—</text><text x="216" y="421.0" font-size="12.5" fill="#333" text-anchor="end">垄断滥用</text><text x="216" y="436.0" font-size="12.5" fill="#333" text-anchor="end">（趁机涨价）</text><rect x="230" y="390" width="102" height="64" rx="5" fill="#1f7a5c"/><text x="281.0" y="426.0" font-size="12" fill="#fff" text-anchor="middle">首选</text><rect x="338" y="390" width="102" height="64" rx="5" fill="#8fc7ad"/><text x="389.0" y="426.0" font-size="12" fill="#333" text-anchor="middle">次选</text><rect x="446" y="390" width="102" height="64" rx="5" fill="#eceff3"/><text x="497.0" y="426.0" font-size="12" fill="#333" text-anchor="middle">—</text><rect x="554" y="390" width="102" height="64" rx="5" fill="#eceff3"/><text x="605.0" y="426.0" font-size="12" fill="#333" text-anchor="middle">—</text><rect x="662" y="390" width="102" height="64" rx="5" fill="#1f7a5c"/><text x="713.0" y="426.0" font-size="12" fill="#fff" text-anchor="middle">首选</text><rect x="770" y="390" width="102" height="64" rx="5" fill="#d98a8a"/><text x="821.0" y="426.0" font-size="12" fill="#333" text-anchor="middle">有害</text><rect x="878" y="390" width="102" height="64" rx="5" fill="#eceff3"/><text x="929.0" y="426.0" font-size="12" fill="#333" text-anchor="middle">—</text><text x="216" y="491.0" font-size="12.5" fill="#333" text-anchor="end">系统债务危机</text><text x="216" y="506.0" font-size="12.5" fill="#333" text-anchor="end">（全球同步）</text><rect x="230" y="460" width="102" height="64" rx="5" fill="#8fc7ad"/><text x="281.0" y="496.0" font-size="12" fill="#333" text-anchor="middle">次选</text><rect x="338" y="460" width="102" height="64" rx="5" fill="#eceff3"/><text x="389.0" y="496.0" font-size="12" fill="#333" text-anchor="middle">—</text><rect x="446" y="460" width="102" height="64" rx="5" fill="#1f7a5c"/><text x="497.0" y="496.0" font-size="12" fill="#fff" text-anchor="middle">首选</text><rect x="554" y="460" width="102" height="64" rx="5" fill="#eceff3"/><text x="605.0" y="496.0" font-size="12" fill="#333" text-anchor="middle">—</text><rect x="662" y="460" width="102" height="64" rx="5" fill="#eceff3"/><text x="713.0" y="496.0" font-size="12" fill="#333" text-anchor="middle">—</text><rect x="770" y="460" width="102" height="64" rx="5" fill="#d98a8a"/><text x="821.0" y="496.0" font-size="12" fill="#333" text-anchor="middle">有害</text><rect x="878" y="460" width="102" height="64" rx="5" fill="#eceff3"/><text x="929.0" y="496.0" font-size="12" fill="#333" text-anchor="middle">—</text><rect x="240" y="560" width="26" height="16" rx="3" fill="#1f7a5c"/><text x="274" y="573" font-size="12.5" fill="#444">首选</text><rect x="360" y="560" width="26" height="16" rx="3" fill="#8fc7ad"/><text x="394" y="573" font-size="12.5" fill="#444">次选</text><rect x="480" y="560" width="26" height="16" rx="3" fill="#eceff3"/><text x="514" y="573" font-size="12.5" fill="#444">—</text><rect x="600" y="560" width="26" height="16" rx="3" fill="#d98a8a"/><text x="634" y="573" font-size="12.5" fill="#444">有害</text><text x="230" y="600" font-size="12" fill="#999">注：有效性为方向性判断（质量 C）；现实中政策组合需结合国情，单一工具极少足够。</text></svg>
